<?xml version="1.0" encoding="UTF-8"?>
<svg id="_图层_1" data-name="图层 1" xmlns="http://www.w3.org/2000/svg" version="1.1" xmlns:xlink="http://www.w3.org/1999/xlink" viewBox="0 0 170.08 170.08">
  <defs>
    <style>
      .cls-1 {
        fill: #000;
      }

      .cls-1, .cls-2, .cls-3, .cls-4, .cls-5, .cls-6 {
        stroke-width: 0px;
      }

      .cls-2 {
        fill: #333;
      }

      .cls-3 {
        fill: #828282;
      }

      .cls-4, .cls-7 {
        fill: none;
      }

      .cls-8 {
        clip-path: url(#clippath);
      }

      .cls-5 {
        fill: #3d4f7d;
      }

      .cls-7 {
        stroke: #828282;
        stroke-miterlimit: 10;
        stroke-width: 4.03px;
      }

      .cls-6 {
        fill: #fff;
      }
    </style>
    <clipPath id="clippath">
      <circle class="cls-4" cx="69.24" cy="84.93" r="29.07"/>
    </clipPath>
  </defs>
  <path class="cls-5" d="M118.46,49.17c-2.25.94-4.33,1.83-6.42,2.69-2.96,1.21-5.95,2.35-8.89,3.62-1.12.48-1.83.33-2.67-.58-8.25-8.94-18.54-13.47-30.65-13.45-11.37.01-21.35,4-29.2,12.26-12.93,13.6-15.85,29.61-9.45,47,7.34,19.92,29.14,31.1,49.68,25.74,14.54-3.79,24.08-13.24,28.97-27.4.46-1.33,1.01-1.89,2.46-1.93,4.82-.14,9.64-.43,14.47-.66.52-.02,1.05.04,1.95.08-.56,2.42-.95,4.65-1.59,6.8-3.85,12.98-11.25,23.54-22.21,31.44-10.64,7.67-22.68,11.32-35.78,10.96-15.47-.42-28.87-6.09-39.96-16.88-14.22-13.85-20.54-30.88-18.67-50.55,2.74-28.72,24.67-51.71,53.43-54.39,22.19-2.06,40.03,6.31,53.67,23.83.29.37.49.8.87,1.43Z"/>
  <g>
    <circle class="cls-7" cx="69.23" cy="84.94" r="29.09"/>
    <g class="cls-8">
      <g>
        <path class="cls-3" d="M51.42,76.13c-.39-.37-.68-1.31-1.76-1.37-1.09-.06-1.95,1.49-2.11,2.32s-.64,1.99-1.31,2.25-.89,1.7-1.12,2.84c-.23,1.13,1.11,1.87.81,3.38s1.33,1.99,1.94,2.82c.62.83.54,1.99.27,4.13s.06,4.01.96,6.16,1.31,3.24,2.64,4.85c1.33,1.6.59-1.76.55-2.72s.16-1.15,1.05-1.28,1.1-1.19,2.04-1.94c.94-.75.17-2.4.58-2.87s2.23.61,3.11.15.44-2.98.75-3.74,1.22-1.36,2.2-1.95-.09-3.08-.55-3.88-1.78-.51-2.81-.88-2.2-2.33-2.18-3.58-1.02-2.72-2.18-2.79c-1.16-.08-1.44-.6-2.83-1.9Z"/>
        <path class="cls-3" d="M56.04,57.34c.13.84-.05,3.16.22,3.65s1.68.78,2.49.06,2.01-.11,2.31.24,1.43-.9,1.58-.16-.22,1.47.05,2.7c.27,1.23-1.09,1.4-1.76,1.05s.79-1.02-.06-1.19-1.35-.42-1.92.13.11.83.29,1.38-1.28.48-1.91.35-1.79.82-2.3,1.53-.49-1.57-1.49-.3-3.04,3.74-4.76,3.9c-1.73.17-4.14,1.16-4.41,2.5s1.2,2.08,1.74,2.71-.16,2.99-.44,3.3-.47-2.08-1.37-2.71-2.96-1.04-3.54-4.39,10.54-14.31,15.27-14.76Z"/>
        <path class="cls-3" d="M68.41,57.4c-.51.28-.27,1.49-1.02,2.23s0,1.4.7,1.54,2.15-.08,2.96-.8,3.34.23,3.92.27,1.2-.49,2.21-.73c1.01-.24,2.93-.66,2.3-1.16s-3.91-1.08-5.24-1.05c-1.33.03-3.77-1.42-5.84-.29Z"/>
        <path class="cls-3" d="M77.7,71.11c-1.58-.32-1.41,1.58-2.69,2.57s-1.72.82-2.72,1.94c-1,1.12-.42,1.7-.51,2.54s-1.12,1.72-1.57,2.02.25,2.23,1.51,3.33.8,2.57,2.13,2.92,3.02-.71,3.6-.13,3.03-.01,3.4,2.01c.37,2.02-1.3,2.22-.68,3.36.63,1.14,2.07,3.21.65,4.48s-1.54,3.03-1.04,4.38c.51,1.35-.09,2.62-.3,4.14s.73,2.25,2.58,1.14c1.85-1.1,4.47-2.91,4.86-4.07s1.42-2.05,2.56-2.67.97-3.3,1.57-4.73c.6-1.43,2.41-2.7,3.1-3.42s1.6-2.55,1.57-3.57c-.03-1.02-1.47.33-1.77.31s-.69-5.85-1.06-6.31-1.52-2.09-1.4-3.08.48-1.61-.89-1.73c-1.37-.12-2.51-1.83-3.27-1.51s-2.38-.9-2.65-1.87-2.08-2.03-3.42-1.91c-1.34.12-2.51.12-3.56-.09Z"/>
        <path class="cls-3" d="M93.11,74.81c-.56,2.08-1.29,2.17-.16,3.87s1.37,5.56,1.71,6.56,2.72-.39,3.35-1.19-3.13-3.27-2.36-5.68c.23-.73,1.04.67,1.2,1.41s2.88,3.85,4.4,3.22c1.03-2.44-2.24-16.3-9.3-21.38-.43,1-1.76.27-2.93.27s-.84,1.07-1.15,2.25-2.88.82-3.62.21-1.46.33-2.59.88-1.36.97-1.85,1.88-1.16-.78-1.97-.24.43,1.33-.36,1.79.82.94,2.05,1.03,2.39-1.07,3.3-1.36,3.29,1.44,3.42,2.32,2.75,1.8,4.12,1.92,2.99,1.3,2.74,2.24Z"/>
      </g>
    </g>
  </g>
  <g>
    <path class="cls-1" d="M158.44,65.84c.64,3.8.59,7.32-1.29,10.62-2.13,3.73-6.21,4.44-9.48,1.64-5.01-4.29-6.85-13.94-3.76-19.79,2.01-3.81,5.92-4.64,9.27-1.92,3.07,2.49,4.4,5.96,5.26,9.46ZM147.1,58.7c-.09-.08-.28-.4-.45-.4-.4.01-1.05.08-1.15.32-.61,1.4-1.12,2.85-1.57,4.31-.06.2.34.61.61.81.14.1.64.01.69-.11.64-1.59,1.23-3.2,1.88-4.93Z"/>
    <g>
      <path class="cls-2" d="M162.71,63.09c1.36,6.93,1.22,12.48-2.03,17.53-1.99,3.09-4.88,4.83-8.63,5.09-8.98.62-17.95,1.27-26.92,1.93-2.19.16-3.87-.9-5.39-2.25-5.44-4.85-7.26-15.5-3.99-22.02,1.34-2.68,3.82-3.36,6.2-4.32,6.74-2.7,13.64-5.04,20.2-8.13,8.5-4,14.48.13,17.85,6.04,1.3,2.28,2.14,4.83,2.71,6.14ZM160.93,64.93c-.72-3.47-2.16-6.61-4.46-9.3-2.21-2.58-4.91-4.37-8.48-3.97-3.76.42-6.08,2.87-7.24,6.24-2.68,7.79-1.35,15.02,3.86,21.37,2.28,2.78,5.32,4.59,9.17,3.69,3.74-.87,5.64-3.66,6.7-7.09,1.11-3.59,1.2-7.26.44-10.94Z"/>
      <path class="cls-6" d="M160.93,64.93c.75,3.68.67,7.35-.44,10.94-1.06,3.44-2.97,6.22-6.7,7.09-3.85.9-6.88-.91-9.17-3.69-5.21-6.35-6.54-13.58-3.86-21.37,1.16-3.36,3.48-5.81,7.24-6.24,3.57-.4,6.27,1.39,8.48,3.97,2.3,2.69,3.74,5.82,4.46,9.3ZM158.44,65.84c-.87-3.5-2.19-6.97-5.26-9.46-3.35-2.71-7.26-1.88-9.27,1.92-3.09,5.85-1.26,15.5,3.76,19.79,3.27,2.8,7.36,2.09,9.48-1.64,1.88-3.3,1.93-6.81,1.29-10.62Z"/>
      <path class="cls-2" d="M89.04,90.86c-2.76.17-5.01.31-7.27.43-.16,0-.32-.05-.48-.09-2.91-.73-5.23-4-5.57-7.87-.34-3.8,1.06-6.62,4.05-7.92,1.73-.75,3.52-1.35,5.65-2.15-2.18,6.51-.95,12.15,3.61,17.6Z"/>
      <path class="cls-6" d="M147.1,58.7c-.65,1.73-1.24,3.34-1.88,4.93-.05.12-.55.21-.69.11-.27-.19-.67-.61-.61-.81.45-1.46.97-2.91,1.57-4.31.1-.24.75-.3,1.15-.32.18,0,.37.31.45.4Z"/>
      <path class="cls-2" d="M117.68,88.32c-7.04-7.46-9.12-15.67-5.5-25.39-1.68.65-3.04,1.14-4.38,1.72-.03.01-.06.01-.09.02l-6.99,2.67s0,0,0,.01c-2.79,1.08-5.35,2.3-8.04,3.06-2.8.79-4.2,2.6-4.65,5.24-.73,4.28-.05,8.3,2.52,11.92,1.42,1.99,3.25,2.85,5.74,2.55,3-.36,6.02-.51,9.03-.76l7.92-.63s.06-.01.09-.01c1.35-.02,2.7-.24,4.33-.4Z"/>
    </g>
  </g>
</svg>