<?xml version="1.0" encoding="UTF-8"?>
<svg xmlns="http://www.w3.org/2000/svg" viewBox="0 0 432 432">
  <rect width="432" height="432" fill="#000000"/>
  <g transform="translate(216 216) scale(2.234242709313264) translate(-85.04 -85.04)">
<defs>
    <style>
      .cls-1 {
        fill: #000;
      }

      .cls-1, .cls-2, .cls-3, .cls-4, .cls-5, .cls-6 {
        stroke-width: 0px;
      }

      .cls-2, .cls-7 {
        fill: #333;
      }

      .cls-3 {
        fill: #828282;
      }

      .cls-8 {
        fill: #ee7800;
        font-size: 27.96px;
        stroke: #ee7800;
        stroke-width: .68px;
      }

      .cls-8, .cls-9, .cls-7 {
        font-family: SourceHanSansCN-Heavy-GBpc-EUC-H, 'Source Han Sans CN';
        font-weight: 800;
      }

      .cls-8, .cls-10 {
        stroke-miterlimit: 10;
      }

      .cls-4, .cls-10 {
        fill: none;
      }

      .cls-9 {
        font-size: 20.53px;
        letter-spacing: 0em;
      }

      .cls-9, .cls-5 {
        fill: #3d4f7d;
      }

      .cls-10 {
        stroke: #828282;
        stroke-width: 2.1px;
      }

      .cls-11 {
        clip-path: url(#clippath);
      }

      .cls-6 {
        fill: #fff;
      }

      .cls-7 {
        font-size: 29.81px;
        letter-spacing: .01em;
      }
    </style>
    <clipPath id="clippath">
      <circle class="cls-4" cx="78.55" cy="57.09" r="15.16"/>
    </clipPath>
  </defs>
  <g>
    <g>
      <path class="cls-2" d="M85.99,102.02h2.33l-1.01,4.74h2.44l-.56,1.6h-4.55l1.35-6.34Z"/>
      <path class="cls-2" d="M92.35,106.31c-.05.15-.06.34-.06.44,0,.3.1.43.29.43.21,0,.31-.16.4-.35h2.16c-.27.75-.87,1.65-2.69,1.65s-2.36-.99-2.36-2.11c0-1.03.6-3.08,3-3.06,1.78,0,2.36.95,2.36,2.02,0,.24-.05.6-.15.97h-2.94ZM93.24,105.27c.05-.16.06-.3.06-.41,0-.19-.06-.31-.23-.31-.23,0-.39.23-.5.72h.67Z"/>
      <path class="cls-2" d="M96.21,104.99c.21-1.03.27-1.32.31-1.55h2.24c0,.11-.05.35-.06.45.33-.35.72-.57,1.4-.57.95,0,1.3.7,1.08,1.74l-.7,3.31h-2.25l.66-3.08c.07-.37,0-.45-.13-.45-.17,0-.27.1-.36.54l-.64,3h-2.25l.71-3.38Z"/>
      <path class="cls-2" d="M106.35,107.74c-.32,1.51-.99,2.36-2.88,2.36s-2.28-.83-2.27-1.7h2.15c-.04.18-.04.41.22.41.24,0,.36-.36.46-.74l.12-.45c-.3.36-.62.48-1.14.48-.95,0-1.45-.6-1.45-1.6,0-1.36.71-3.17,2.37-3.17.71,0,.94.33,1.03.52.04-.12.07-.3.11-.4h2.24c-.06.26-.21.9-.37,1.64l-.57,2.66ZM103.85,106.4c0,.28.06.41.24.41.41,0,.65-1.57.65-1.77,0-.25-.06-.33-.22-.33-.41,0-.67,1.34-.67,1.69Z"/>
      <path class="cls-2" d="M110.65,101.77l-.43,2.02c.28-.29.71-.48,1.29-.48,1.03,0,1.37.69,1.14,1.77l-.69,3.28h-2.24l.67-3.12c.06-.28.02-.41-.13-.41-.21,0-.31.21-.37.53l-.64,3h-2.25l1.41-6.59h2.25Z"/>
      <path class="cls-2" d="M117.98,106.75c-.19.92-.27,1.34-.31,1.62h-2.2c0-.1.02-.31.04-.44-.31.33-.65.56-1.3.56-1.04,0-1.45-.55-1.21-1.67l.72-3.38h2.26l-.66,3.08c-.06.3-.02.43.16.43.16,0,.24-.16.31-.49l.65-3.01h2.26l-.71,3.31Z"/>
      <path class="cls-2" d="M121.41,102.02h2.68c1.48,0,2.41.69,2.41,1.86,0,1.58-1.32,2.3-2.88,2.3h-.85l-.46,2.18h-2.26l1.35-6.34ZM123.09,104.75h.32c.6,0,.79-.4.79-.77,0-.34-.14-.55-.52-.55h-.31l-.28,1.31Z"/>
      <path class="cls-2" d="M126.95,105.08c.19-.86.29-1.37.32-1.65h2.15c0,.12-.05.56-.13.93.33-.73.84-1.02,1.63-1.02l-.47,2.14c-1.07-.07-1.41.33-1.53.89l-.42,1.99h-2.25l.69-3.28Z"/>
      <path class="cls-2" d="M136.35,105.51c0,.72-.28,2.98-3.12,2.98-1.77,0-2.39-.91-2.39-2.11,0-1.32.74-3.06,3.02-3.06,1.89,0,2.49,1.08,2.49,2.19ZM133.12,106.75c0,.31.06.44.25.44.47,0,.71-1.91.71-2.16s-.04-.4-.26-.4c-.47,0-.7,1.82-.7,2.12Z"/>
    </g>
    <text class="cls-7" transform="translate(20.58 130.07)"><tspan x="0" y="0">冷湖</tspan></text>
    <text class="cls-9" transform="translate(83.1 130.07)"><tspan x="0" y="0">探索家</tspan></text>
    <text class="cls-8" transform="translate(137.86 106.96)"><tspan x="0" y="0">+</tspan></text>
  </g>
  <g>
    <path class="cls-5" d="M104.22,38.44c-1.17.49-2.26.95-3.35,1.4-1.54.63-3.1,1.23-4.64,1.89-.58.25-.95.17-1.39-.3-4.3-4.66-9.67-7.02-15.99-7.02-5.93,0-11.13,2.09-15.23,6.39-6.74,7.09-8.27,15.44-4.93,24.51,3.83,10.39,15.2,16.22,25.91,13.42,7.58-1.98,12.56-6.91,15.11-14.29.24-.69.53-.98,1.28-1,2.52-.07,5.03-.23,7.54-.34.27-.01.55.02,1.02.04-.29,1.26-.5,2.42-.83,3.55-2.01,6.77-5.87,12.28-11.58,16.4-5.55,4-11.83,5.9-18.66,5.72-8.07-.22-15.06-3.18-20.84-8.8-7.42-7.22-10.71-16.11-9.74-26.36,1.43-14.98,12.86-26.97,27.86-28.36,11.57-1.08,20.88,3.29,27.99,12.43.15.19.25.42.45.75Z"/>
    <g>
      <circle class="cls-10" cx="78.55" cy="57.09" r="15.17"/>
      <g class="cls-11">
        <g>
          <path class="cls-3" d="M69.26,52.5c-.21-.19-.35-.68-.92-.72s-1.02.78-1.1,1.21-.33,1.04-.69,1.17-.47.89-.58,1.48.58.98.42,1.76.69,1.04,1.01,1.47.28,1.04.14,2.16.03,2.09.5,3.21.68,1.69,1.37,2.53.31-.92.28-1.42.08-.6.54-.67.57-.62,1.06-1.01.09-1.25.3-1.49,1.16.32,1.62.08.23-1.55.39-1.95.63-.71,1.15-1.02-.05-1.61-.29-2.02-.93-.27-1.46-.46-1.15-1.21-1.14-1.87-.53-1.42-1.14-1.46-.75-.32-1.48-.99Z"/>
          <path class="cls-3" d="M71.67,42.7c.07.44-.02,1.65.12,1.91s.88.41,1.3.03,1.05-.06,1.2.13.75-.47.82-.09-.12.77.02,1.41-.57.73-.92.55.41-.53-.03-.62-.7-.22-1,.07.06.43.15.72-.67.25-1,.18-.93.43-1.2.8-.26-.82-.78-.16-1.58,1.95-2.48,2.04-2.16.61-2.3,1.31.63,1.09.91,1.41-.08,1.56-.23,1.72-.24-1.09-.72-1.41-1.54-.54-1.84-2.29,5.5-7.46,7.96-7.7Z"/>
          <path class="cls-3" d="M78.12,42.72c-.27.15-.14.78-.53,1.16s0,.73.37.8,1.12-.04,1.54-.42,1.74.12,2.05.14.63-.26,1.15-.38,1.53-.35,1.2-.6-2.04-.56-2.73-.55-1.96-.74-3.04-.15Z"/>
          <path class="cls-3" d="M82.96,49.88c-.83-.17-.73.83-1.4,1.34s-.9.43-1.42,1.01-.22.89-.27,1.32-.59.9-.82,1.05.13,1.16.79,1.74.42,1.34,1.11,1.52,1.57-.37,1.88-.07,1.58,0,1.78,1.05-.68,1.16-.35,1.75,1.08,1.68.34,2.34-.8,1.58-.54,2.28-.05,1.37-.16,2.16.38,1.17,1.35.6,2.33-1.52,2.53-2.12.74-1.07,1.33-1.39.51-1.72.82-2.47,1.26-1.41,1.61-1.78.84-1.33.82-1.86-.76.17-.92.16-.36-3.05-.55-3.29-.79-1.09-.73-1.61.25-.84-.47-.9-1.31-.95-1.71-.79-1.24-.47-1.38-.98-1.08-1.06-1.79-1-1.31.06-1.85-.05Z"/>
          <path class="cls-3" d="M91,51.81c-.29,1.08-.67,1.13-.08,2.02s.71,2.9.89,3.42,1.42-.2,1.75-.62-1.63-1.7-1.23-2.96c.12-.38.54.35.63.73s1.5,2.01,2.3,1.68c.54-1.27-1.17-8.5-4.85-11.15-.23.52-.92.14-1.53.14s-.44.56-.6,1.18-1.5.43-1.89.11-.76.17-1.35.46-.71.51-.97.98-.61-.41-1.03-.13.23.69-.19.93.43.49,1.07.54,1.25-.56,1.72-.71,1.71.75,1.78,1.21,1.43.94,2.15,1,1.56.68,1.43,1.17Z"/>
        </g>
      </g>
    </g>
    <g>
      <path class="cls-1" d="M125.07,47.13c.33,1.98.31,3.82-.67,5.54-1.11,1.94-3.24,2.32-4.95.85-2.61-2.24-3.57-7.27-1.96-10.32,1.05-1.99,3.09-2.42,4.83-1,1.6,1.3,2.29,3.11,2.75,4.93ZM119.15,43.41s-.14-.21-.24-.21c-.21,0-.55.04-.6.17-.32.73-.58,1.49-.82,2.25-.03.1.18.32.32.42.07.05.33,0,.36-.06.33-.83.64-1.67.98-2.57Z"/>
      <g>
        <path class="cls-2" d="M127.29,45.69c.71,3.61.64,6.51-1.06,9.14-1.04,1.61-2.55,2.52-4.5,2.65-4.68.32-9.36.66-14.04,1.01-1.14.08-2.02-.47-2.81-1.18-2.84-2.53-3.78-8.09-2.08-11.48.7-1.4,1.99-1.75,3.23-2.25,3.51-1.41,7.12-2.63,10.53-4.24,4.43-2.09,7.55.07,9.31,3.15.68,1.19,1.12,2.52,1.41,3.2ZM126.37,46.65c-.37-1.81-1.13-3.45-2.33-4.85-1.15-1.35-2.56-2.28-4.42-2.07-1.96.22-3.17,1.5-3.77,3.25-1.4,4.06-.71,7.83,2.01,11.15,1.19,1.45,2.77,2.39,4.78,1.92,1.95-.45,2.94-1.91,3.5-3.7.58-1.87.62-3.78.23-5.7Z"/>
        <path class="cls-6" d="M126.37,46.65c.39,1.92.35,3.83-.23,5.7-.55,1.79-1.55,3.25-3.5,3.7-2.01.47-3.59-.47-4.78-1.92-2.72-3.31-3.41-7.08-2.01-11.15.6-1.75,1.81-3.03,3.77-3.25,1.86-.21,3.27.72,4.42,2.07,1.2,1.4,1.95,3.04,2.33,4.85ZM125.07,47.13c-.45-1.83-1.14-3.64-2.75-4.93-1.75-1.42-3.78-.98-4.83,1-1.61,3.05-.66,8.08,1.96,10.32,1.71,1.46,3.84,1.09,4.95-.85.98-1.72,1.01-3.55.67-5.54Z"/>
        <path class="cls-2" d="M88.88,60.17c-1.44.09-2.62.16-3.79.23-.08,0-.17-.03-.25-.05-1.52-.38-2.73-2.09-2.9-4.1-.17-1.98.55-3.45,2.11-4.13.9-.39,1.84-.7,2.95-1.12-1.14,3.39-.49,6.34,1.88,9.18Z"/>
        <path class="cls-6" d="M119.15,43.41c-.34.9-.65,1.74-.98,2.57-.03.06-.29.11-.36.06-.14-.1-.35-.32-.32-.42.24-.76.5-1.52.82-2.25.05-.12.39-.16.6-.17.09,0,.19.16.24.21Z"/>
        <path class="cls-2" d="M103.81,58.85c-3.67-3.89-4.76-8.17-2.87-13.24-.88.34-1.59.6-2.28.9-.02,0-.03,0-.04.01l-3.65,1.39s0,0,0,0c-1.46.56-2.79,1.2-4.19,1.59-1.46.41-2.19,1.35-2.43,2.73-.38,2.23-.03,4.33,1.31,6.21.74,1.04,1.69,1.49,2.99,1.33,1.56-.19,3.14-.27,4.71-.39l4.13-.33s.03,0,.05,0c.71-.01,1.41-.13,2.26-.21Z"/>
      </g>
    </g>
  </g>
  </g>
</svg>
